<?xml version="1.0" encoding="utf-8"?>
<!-- Generator: Adobe Illustrator 25.0.1, SVG Export Plug-In . SVG Version: 6.00 Build 0)  -->
<svg version="1.1" id="Layer_1" xmlns="http://www.w3.org/2000/svg" xmlns:xlink="http://www.w3.org/1999/xlink" x="0px" y="0px"
	 viewBox="0 0 22 23" style="enable-background:new 0 0 22 23;" xml:space="preserve">
<style type="text/css">
	.st0{fill:#37B672;}
	.st1{fill:#4ACC82;}
	.st2{fill:#603D26;}
</style>
<path class="st0" d="M9.5,17c0,0,1.5-8.2,4.5-10c0.1-0.1-2,2.7-3.2,10H9.5z"/>
<path class="st0" d="M11,13c0,0-0.5-3.5-4.5-5.5V6.6c0,0,2.5,1.8,5.5,5.4L11,13z"/>
<g id="Layer_2">
	<path class="st0" d="M13.2,8.6C13.2,8.6,12,7,15,4c1-1,3-2,5-2c0,0,0,3-2,5S13.2,8.6,13.2,8.6z"/>
	<path class="st0" d="M9,8.5c0,0-1.1,0.9-3.3-1.1C4.9,6.7,4.1,5.4,4,4c0,0,0.2,0.1,3,1C10,6,9,8.5,9,8.5z"/>
</g>
<g>
	<path class="st1" d="M13.7,8.6c0,0,2.9-0.8,4.3-3.6c1-2,2-3,2-3s-3,0-5,2s-2.1,3-2.1,4c0,0,1.9-2.7,4-3.9
		C16.9,4.2,12.3,8.3,13.7,8.6z"/>
</g>
<g>
	<path class="st1" d="M9,8.1C9,8.1,9,6,6,5C4.8,4.6,4,4,4,4s0.1,2.1,1.6,3.4s2.2,1.3,2.9,1.3c0,0-2-1.2-2.9-2.6
		C5.7,6.1,8.8,9.1,9,8.1z"/>
</g>
<path class="st2" d="M12,18c0,0.6-1.6,1-3.5,1S4,19,5,18c0.4-0.4,1.6-1,3.5-1S12,17.4,12,18z"/>
<path class="st2" d="M14,18c0,0.6-2,0-3.4,0s-4.2,0-3.4-1c0.3-0.4,1.6-1,3.1-1C13.2,16,14,17.4,14,18z"/>
<ellipse class="st2" cx="11.5" cy="18" rx="4.5" ry="1"/>
</svg>
